HIERARCHY
ROOT SpineBase
{
  OFFSET 0.000000 0.000000 0.000000
  CHANNELS 6 Xposition Yposition Zposition Zrotation Xrotation Yrotation
  JOINT SpineMid
  {
    OFFSET 0.000000 32.334485 0.000000
    CHANNELS 3 Zrotation Xrotation Yrotation
    JOINT SpineShoulder
    {
      OFFSET -0.180329 23.703574 -0.879682
      CHANNELS 3 Zrotation Xrotation Yrotation
      JOINT Neck
      {
        OFFSET -0.152577 7.758389 -0.583515
        CHANNELS 3 Zrotation Xrotation Yrotation
        JOINT Head
        {
          OFFSET 6.724973 9.403502 3.228110
          CHANNELS 3 Zrotation Xrotation Yrotation
          End Site
          {
            OFFSET 0 0 0
          }
        }
      }
      JOINT ShoulderLeft
      {
        OFFSET -7.860380 -3.675424 -12.730760
        CHANNELS 3 Zrotation Xrotation Yrotation
        JOINT ElbowLeft
        {
          OFFSET -1.075750 -23.762228 -6.937430
          CHANNELS 3 Zrotation Xrotation Yrotation
          JOINT WristLeft
          {
            OFFSET 5.426085 -19.456463 -2.531113
            CHANNELS 3 Zrotation Xrotation Yrotation
            JOINT HandLeft
            {
              OFFSET 0.933529 -7.577189 0.403188
              CHANNELS 3 Zrotation Xrotation Yrotation
              JOINT HandTipLeft
              {
                OFFSET 1.735930 -6.281590 -0.859706
                CHANNELS 3 Zrotation Xrotation Yrotation
                End Site
                {
                  OFFSET 0 0 0
                }
              }
              JOINT ThumbLeft
              {
                OFFSET -2.717289 1.327461 5.498788
                CHANNELS 3 Zrotation Xrotation Yrotation
                End Site
                {
                  OFFSET 0 0 0
                }
              }
            }
          }
        }
      }
      JOINT ShoulderRight
      {
        OFFSET 6.830026 -3.121802 -19.209552
        CHANNELS 3 Zrotation Xrotation Yrotation
        JOINT ElbowRight
        {
          OFFSET 4.895885 -19.225414 14.333817
          CHANNELS 3 Zrotation Xrotation Yrotation
          JOINT WristRight
          {
            OFFSET 9.860610 -20.854303 13.575903
            CHANNELS 3 Zrotation Xrotation Yrotation
            JOINT HandRight
            {
              OFFSET 4.909478 -9.728119 8.807994
              CHANNELS 3 Zrotation Xrotation Yrotation
              JOINT HandTipRight
              {
                OFFSET 1.471653 -4.491097 0.496930
                CHANNELS 3 Zrotation Xrotation Yrotation
                End Site
                {
                  OFFSET 0 0 0
                }
              }
              JOINT ThumbRight
              {
                OFFSET -4.649311 0.109313 -0.839534
                CHANNELS 3 Zrotation Xrotation Yrotation
                End Site
                {
                  OFFSET 0 0 0
                }
              }
            }
          }
        }
      }
    }
  }
  JOINT HipLeft
  {
    OFFSET -7.336701 1.109758 -7.012417
    CHANNELS 3 Zrotation Xrotation Yrotation
    JOINT KneeLeft
    {
      OFFSET 0.242138 -29.921240 1.434316
      CHANNELS 3 Zrotation Xrotation Yrotation
      JOINT AnkleLeft
      {
        OFFSET -5.519985 -33.138804 3.270595
        CHANNELS 3 Zrotation Xrotation Yrotation
        JOINT FootLeft
        {
          OFFSET 6.008019 -6.467496 0.704927
          CHANNELS 3 Zrotation Xrotation Yrotation
          End Site
          {
            OFFSET 0 0 0
          }
        }
      }
    }
  }
  JOINT HipRight
  {
    OFFSET 5.828408 0.662870 0.016815
    CHANNELS 3 Zrotation Xrotation Yrotation
    JOINT KneeRight
    {
      OFFSET -5.222486 -41.122705 9.320862
      CHANNELS 3 Zrotation Xrotation Yrotation
      JOINT AnkleRight
      {
        OFFSET -2.961909 -27.066130 3.201912
        CHANNELS 3 Zrotation Xrotation Yrotation
        JOINT FootRight
        {
          OFFSET 3.038454 -4.465695 -8.554250
          CHANNELS 3 Zrotation Xrotation Yrotation
          End Site
          {
            OFFSET 0 0 0
          }
        }
      }
    }
  }
}
MOTION
Frames: 13
Frame Time: 0.033333
66.377136 72.066814 349.916653 -0.000000 0.000000 -28.099048 0.000000 0.000000 28.099048 -0.000000 0.000000 0.000000 -0.000000 0.000000 0.000000 0.000000 0.000000 0.000000 -0.000000 0.000000 0.000000 -0.000000 0.000000 0.000000 -0.000000 0.000000 0.000000 -0.000000 0.000000 0.000000 0.000000 0.000000 0.000000 0.000000 0.000000 0.000000 -0.000000 0.000000 0.000000 -0.000000 0.000000 0.000000 -0.000000 0.000000 0.000000 -0.000000 0.000000 0.000000 0.000000 0.000000 0.000000 0.000000 0.000000 0.000000 0.000000 0.000000 28.099048 -0.000000 0.000000 0.000000 -0.000000 0.000000 0.000000 0.000000 0.000000 0.000000 0.000000 0.000000 28.099048 -0.000000 0.000000 0.000000 -0.000000 0.000000 0.000000 0.000000 0.000000 0.000000
66.439105 72.144111 349.864570 0.125367 0.072664 -26.725435 -0.079297 -0.121281 26.725271 -0.000000 0.000000 0.000000 -0.000000 0.000000 0.000000 0.000000 0.000000 0.000000 -0.000000 0.000000 0.000000 -0.000000 0.000000 0.000000 1.029581 -1.876060 -0.159197 1.762079 -0.037369 -0.760199 0.000000 0.000000 0.000000 0.000000 0.000000 0.000000 2.222809 1.605807 2.046316 -3.552232 -2.311019 -3.353444 1.874408 -0.169560 1.232730 -4.841488 1.981706 -0.085958 0.000000 0.000000 0.000000 0.000000 0.000000 0.000000 -0.079297 -0.121281 26.725271 -0.000000 0.000000 0.000000 -6.248925 7.799686 7.423187 0.000000 0.000000 0.000000 -1.435161 0.941734 26.370001 1.657016 -3.986109 0.791491 -4.494873 5.099249 8.405087 0.000000 0.000000 0.000000
66.486771 72.195803 349.815182 0.227072 0.138718 -25.458601 -0.145395 -0.222857 25.458044 -0.000000 0.000000 0.000000 -0.925520 0.101274 0.244630 0.000000 0.000000 0.000000 -0.000000 0.000000 0.000000 -0.000000 0.000000 0.000000 1.985445 -3.569095 -0.271311 3.166039 0.356721 -1.365924 0.000000 0.000000 0.000000 0.000000 0.000000 0.000000 3.924145 2.906557 3.603136 -6.390803 -3.907163 -6.025769 3.341292 -0.277732 2.169899 -9.393344 3.805571 0.048009 0.000000 0.000000 0.000000 0.000000 0.000000 0.000000 -0.990184 -0.127034 25.424505 0.721836 -0.449230 0.033789 -13.025645 14.367408 15.402916 0.000000 0.000000 0.000000 -3.030234 2.298083 24.714858 3.337279 -8.314572 1.752500 -8.626786 9.411665 16.020496 0.000000 0.000000 0.000000
66.520132 72.221891 349.768488 0.304755 0.197981 -24.324542 -0.196155 -0.305934 24.323491 -0.000000 0.000000 0.000000 -1.265192 0.180349 0.304785 0.000000 0.000000 0.000000 -0.000000 0.000000 0.000000 -0.000000 0.000000 0.000000 2.869652 -5.078093 -0.344163 4.309958 1.112943 -1.851724 0.000000 0.000000 0.000000 0.000000 0.000000 0.000000 5.050306 3.792688 4.626408 -8.343050 -4.846398 -7.846727 4.405556 -0.386027 2.826049 -12.985591 5.381370 0.327481 0.000000 0.000000 0.000000 0.000000 0.000000 0.000000 -1.295780 -0.129601 24.279711 0.929864 -0.612892 0.044575 -19.006268 18.936514 22.530986 0.000000 0.000000 0.000000 -4.802130 4.120847 23.174392 5.094360 -13.003252 2.917628 -12.217724 13.039161 22.601760 0.000000 0.000000 0.000000
66.539190 72.222374 349.724489 0.358159 0.250299 -23.346526 -0.229649 -0.371737 23.344999 -0.000000 0.000000 0.000000 -1.524526 0.279295 0.324003 0.000000 0.000000 0.000000 -0.000000 0.000000 0.000000 -0.000000 0.000000 0.000000 3.684231 -6.404128 -0.384862 5.270018 2.187220 -2.240327 0.000000 0.000000 0.000000 0.000000 0.000000 0.000000 5.572161 4.190902 5.093893 -9.296086 -5.187370 -8.703520 5.073132 -0.533337 3.214066 -14.929021 6.584910 0.616684 0.000000 0.000000 0.000000 0.000000 0.000000 0.000000 -1.473669 -0.105239 23.296080 1.037224 -0.736753 0.050410 -23.087722 21.651830 27.673896 0.000000 0.000000 0.000000 -6.779422 6.468599 21.794293 7.004721 -18.083458 4.341907 -15.213166 16.141689 28.108499 0.000000 0.000000 0.000000
66.543943 72.197253 349.683184 0.387129 0.295547 -22.543827 -0.244245 -0.421380 22.541931 -0.000000 0.000000 0.000000 -1.704191 0.398727 0.302271 0.000000 0.000000 0.000000 -0.762236 0.212238 0.214162 0.761442 -0.215067 -0.211322 4.431142 -7.549726 -0.399772 6.104741 3.559417 -2.546719 0.000000 0.000000 0.000000 0.000000 0.000000 0.000000 5.478221 4.068270 4.997543 -9.201782 -4.964688 -8.545824 5.348403 -0.739962 3.343012 -14.824408 7.303572 0.770857 0.000000 0.000000 0.000000 0.000000 0.000000 0.000000 -1.523266 -0.062160 22.493138 1.044322 -0.821197 0.050880 -24.780942 23.009227 30.348567 0.000000 0.000000 0.000000 -9.005593 9.404524 20.628184 9.179022 -23.595990 6.113754 -17.634402 18.864683 32.606792 0.000000 0.000000 0.000000
66.527310 72.154621 349.632192 0.377480 0.341776 -22.011584 -0.221877 -0.458336 22.009570 -0.000000 0.000000 0.000000 -1.932712 0.485709 0.320046 0.000000 0.000000 0.000000 -0.715890 0.377558 0.194033 0.714623 -0.379950 -0.189304 5.241530 -8.618563 -0.385769 8.044145 6.210648 -2.968197 0.000000 0.000000 0.000000 0.000000 0.000000 0.000000 5.527074 4.104752 5.041040 -9.471775 -4.839666 -8.701595 5.820565 -0.459675 3.840385 -10.129665 7.351979 0.561037 0.000000 0.000000 0.000000 0.000000 0.000000 0.000000 -1.330908 -0.057946 21.968828 0.878731 -0.786200 0.041774 -24.274409 24.866063 32.845473 0.000000 0.000000 0.000000 -12.941403 14.761959 19.747082 13.270614 -32.336889 9.650056 -19.164053 23.109836 35.320354 0.000000 0.000000 0.000000
66.494857 72.031240 349.598852 0.342085 0.371224 -21.432135 -0.182793 -0.470547 21.430276 -0.000000 0.000000 0.000000 -2.039139 0.634191 0.254105 0.000000 0.000000 0.000000 -0.000000 0.000000 0.000000 -0.000000 0.000000 0.000000 6.193659 -9.421011 -0.319046 9.291711 7.849485 -3.461159 0.000000 0.000000 0.000000 0.000000 0.000000 0.000000 3.256739 2.156205 2.935922 -5.780513 -2.510590 -5.022983 4.864030 -1.167999 3.046579 -8.734587 6.767410 0.180824 0.000000 0.000000 0.000000 0.000000 0.000000 0.000000 -1.050942 0.079639 21.404913 0.607497 -0.829064 0.026797 -21.244273 24.725810 31.251433 0.000000 0.000000 0.000000 -16.739684 20.383899 19.224271 17.913647 -40.464165 13.948319 -21.249993 26.368629 39.487856 0.000000 0.000000 0.000000
66.470407 71.958320 349.576895 0.317381 0.387913 -21.182860 -0.155772 -0.476383 21.181138 -0.000000 0.000000 0.000000 -1.930310 0.762018 0.128738 0.000000 0.000000 0.000000 -0.540126 0.665349 0.130457 1.031325 -1.416923 -0.388405 6.130992 -9.451533 -0.126075 9.279844 10.871506 -3.325242 0.000000 0.000000 0.000000 0.000000 0.000000 0.000000 1.471284 0.752549 1.281012 -2.595360 -0.399227 -1.900704 2.173007 -2.225983 0.567643 -5.418310 6.075751 1.262150 0.000000 0.000000 0.000000 0.000000 0.000000 0.000000 -0.825635 0.199944 21.168351 0.380456 -0.872577 0.014068 -16.040895 21.822506 25.368672 0.000000 0.000000 0.000000 -20.060842 25.383154 19.393224 22.596220 -47.119687 18.519454 -22.353130 27.645447 41.858852 0.000000 0.000000 0.000000
66.454636 71.883372 349.585134 0.302454 0.379104 -21.744661 -0.140492 -0.464176 21.743091 -0.000000 0.000000 0.000000 -1.680176 1.108858 -0.197222 0.000000 0.000000 0.000000 -0.373051 0.900486 0.070905 0.880190 -1.901930 -0.397836 5.962502 -10.273124 -0.173050 8.222956 12.787941 -2.914640 0.000000 0.000000 0.000000 0.000000 0.000000 0.000000 -0.382994 -0.611819 -0.442013 0.160938 1.474311 0.713513 2.350542 -2.342815 0.968634 -3.153562 6.396398 0.401204 0.000000 0.000000 0.000000 0.000000 0.000000 0.000000 -0.597318 0.216379 21.740332 0.172262 -0.801354 0.002976 -5.462511 11.668319 11.437959 0.000000 0.000000 0.000000 -22.241301 28.375312 20.461585 25.220947 -51.006592 21.404409 -22.338206 27.518346 42.361052 0.000000 0.000000 0.000000
66.441713 71.830555 349.570781 0.290925 0.367852 -20.693769 -0.142172 -0.446921 20.692280 -0.000000 0.000000 0.000000 -1.460974 1.446576 -0.507742 0.000000 0.000000 0.000000 -0.227542 0.933405 0.025963 0.887869 -2.196477 -0.442295 5.540771 -10.531322 -0.178619 7.002276 13.423793 -2.439030 0.000000 0.000000 0.000000 0.000000 0.000000 0.000000 -2.102608 -1.784913 -2.040761 2.687041 3.210942 3.032015 2.246163 -2.142091 1.259993 -2.374854 5.439119 -0.726355 0.000000 0.000000 0.000000 0.000000 0.000000 0.000000 -0.571065 0.499017 20.697654 0.066897 -1.036470 -0.004574 -3.766756 8.357603 7.935630 0.000000 0.000000 0.000000 -22.208552 29.256497 19.438440 26.191202 -51.657322 22.242762 -22.533328 27.240399 42.660784 0.000000 0.000000 0.000000
66.420547 71.768293 349.557507 0.278535 0.343496 -20.532557 -0.140368 -0.419366 20.531209 -0.000000 0.000000 0.000000 -1.505394 1.923099 -0.820907 0.000000 0.000000 0.000000 -0.160007 1.034404 0.001325 0.913722 -2.590829 -0.506657 4.931148 -10.842510 -0.225050 8.138438 13.738492 -2.761630 0.000000 0.000000 0.000000 0.000000 0.000000 0.000000 -4.158694 -3.061574 -3.949212 5.394017 5.480960 5.620372 2.068504 -2.308113 1.324396 -0.199350 4.259592 -1.667277 0.000000 0.000000 0.000000 0.000000 0.000000 0.000000 -0.497624 0.608385 20.541846 -0.026081 -1.087759 -0.010296 -9.713483 13.961321 14.426575 0.000000 0.000000 0.000000 -19.963858 26.501564 18.853048 22.639051 -47.895906 18.825546 -23.566696 28.281862 44.588131 0.000000 0.000000 0.000000
66.371111 71.553028 349.541951 0.224062 0.294558 -19.894772 -0.110456 -0.353224 19.893856 -0.000000 0.000000 0.000000 -1.858398 2.352806 -0.988219 0.000000 0.000000 0.000000 -0.047151 1.136472 -0.037110 0.892024 -2.965126 -0.551537 4.293923 -10.422206 -0.220739 9.245468 12.290164 -3.171482 0.000000 0.000000 0.000000 0.000000 0.000000 0.000000 -4.800632 -3.453269 -4.549640 5.823376 5.906327 6.039169 3.000881 -1.798431 2.379524 -0.223864 3.942740 -2.491117 0.000000 0.000000 0.000000 0.000000 0.000000 0.000000 -0.369163 0.793645 19.911345 -0.147350 -1.166415 -0.017994 -13.673131 15.047836 16.333543 0.000000 0.000000 0.000000 -18.888547 26.062581 18.128615 21.694260 -47.070135 18.033997 -21.888578 26.004367 40.890725 0.000000 0.000000 0.000000
